<mxfile host="app.diagrams.net" agent="Mozilla/5.0 (Windows NT 10.0; Win64; x64) AppleWebKit/537.36 (KHTML, like Gecko) Chrome/127.0.0.0 Safari/537.36" version="24.7.6">
  <diagram name="Page-1" id="WARzqJmZyCkNk78oDtjW">
    <mxGraphModel dx="1050" dy="522" grid="1" gridSize="10" guides="1" tooltips="1" connect="1" arrows="1" fold="1" page="1" pageScale="1" pageWidth="827" pageHeight="1169" math="0" shadow="0">
      <root>
        <mxCell id="0" />
        <mxCell id="1" parent="0" />
        <mxCell id="8VByRoDsS0wqyo2PORcs-43" value="" style="ellipse;whiteSpace=wrap;html=1;gradientColor=none;fillStyle=hatch;" parent="1" vertex="1">
          <mxGeometry x="690" y="230" width="120" height="80" as="geometry" />
        </mxCell>
        <mxCell id="8VByRoDsS0wqyo2PORcs-1" value="Candidate" style="rounded=0;whiteSpace=wrap;html=1;" parent="1" vertex="1">
          <mxGeometry x="85" y="375" width="120" height="60" as="geometry" />
        </mxCell>
        <mxCell id="8VByRoDsS0wqyo2PORcs-2" value="Role" style="rounded=0;whiteSpace=wrap;html=1;" parent="1" vertex="1">
          <mxGeometry x="100" y="205" width="90" height="40" as="geometry" />
        </mxCell>
        <mxCell id="8VByRoDsS0wqyo2PORcs-3" value="&lt;u&gt;Role ID&lt;/u&gt;" style="ellipse;whiteSpace=wrap;html=1;" parent="1" vertex="1">
          <mxGeometry x="40" y="135" width="80" height="50" as="geometry" />
        </mxCell>
        <mxCell id="8VByRoDsS0wqyo2PORcs-4" value="Description" style="ellipse;whiteSpace=wrap;html=1;" parent="1" vertex="1">
          <mxGeometry x="160" y="130" width="80" height="60" as="geometry" />
        </mxCell>
        <mxCell id="8VByRoDsS0wqyo2PORcs-5" value="" style="endArrow=none;html=1;rounded=0;exitX=0.5;exitY=1;exitDx=0;exitDy=0;entryX=0;entryY=0;entryDx=0;entryDy=0;" parent="1" source="8VByRoDsS0wqyo2PORcs-3" target="8VByRoDsS0wqyo2PORcs-2" edge="1">
          <mxGeometry width="50" height="50" relative="1" as="geometry">
            <mxPoint x="400" y="395" as="sourcePoint" />
            <mxPoint x="450" y="345" as="targetPoint" />
          </mxGeometry>
        </mxCell>
        <mxCell id="8VByRoDsS0wqyo2PORcs-6" value="" style="endArrow=none;html=1;rounded=0;exitX=0.5;exitY=1;exitDx=0;exitDy=0;entryX=1;entryY=0;entryDx=0;entryDy=0;" parent="1" source="8VByRoDsS0wqyo2PORcs-4" target="8VByRoDsS0wqyo2PORcs-2" edge="1">
          <mxGeometry width="50" height="50" relative="1" as="geometry">
            <mxPoint x="400" y="395" as="sourcePoint" />
            <mxPoint x="450" y="345" as="targetPoint" />
          </mxGeometry>
        </mxCell>
        <mxCell id="8VByRoDsS0wqyo2PORcs-7" value="has" style="rhombus;whiteSpace=wrap;html=1;" parent="1" vertex="1">
          <mxGeometry x="115" y="275" width="60" height="60" as="geometry" />
        </mxCell>
        <mxCell id="8VByRoDsS0wqyo2PORcs-8" value="" style="endArrow=none;html=1;rounded=0;exitX=0.5;exitY=1;exitDx=0;exitDy=0;entryX=0.5;entryY=0;entryDx=0;entryDy=0;" parent="1" source="8VByRoDsS0wqyo2PORcs-2" target="8VByRoDsS0wqyo2PORcs-7" edge="1">
          <mxGeometry width="50" height="50" relative="1" as="geometry">
            <mxPoint x="400" y="395" as="sourcePoint" />
            <mxPoint x="450" y="345" as="targetPoint" />
          </mxGeometry>
        </mxCell>
        <mxCell id="8VByRoDsS0wqyo2PORcs-9" value="" style="shape=link;html=1;rounded=0;exitX=0.5;exitY=1;exitDx=0;exitDy=0;entryX=0.5;entryY=0;entryDx=0;entryDy=0;" parent="1" source="8VByRoDsS0wqyo2PORcs-7" target="8VByRoDsS0wqyo2PORcs-1" edge="1">
          <mxGeometry width="100" relative="1" as="geometry">
            <mxPoint x="380" y="375" as="sourcePoint" />
            <mxPoint x="480" y="375" as="targetPoint" />
          </mxGeometry>
        </mxCell>
        <mxCell id="8VByRoDsS0wqyo2PORcs-28" style="edgeStyle=orthogonalEdgeStyle;rounded=0;orthogonalLoop=1;jettySize=auto;html=1;exitX=1;exitY=0.5;exitDx=0;exitDy=0;" parent="1" source="8VByRoDsS0wqyo2PORcs-10" edge="1">
          <mxGeometry relative="1" as="geometry">
            <mxPoint x="140" y="475" as="targetPoint" />
          </mxGeometry>
        </mxCell>
        <mxCell id="8VByRoDsS0wqyo2PORcs-10" value="&lt;u&gt;Candidate ID&lt;/u&gt;" style="ellipse;whiteSpace=wrap;html=1;" parent="1" vertex="1">
          <mxGeometry x="14" y="445" width="86" height="60" as="geometry" />
        </mxCell>
        <mxCell id="8VByRoDsS0wqyo2PORcs-27" style="edgeStyle=orthogonalEdgeStyle;rounded=0;orthogonalLoop=1;jettySize=auto;html=1;exitX=1;exitY=0.5;exitDx=0;exitDy=0;" parent="1" source="8VByRoDsS0wqyo2PORcs-11" edge="1">
          <mxGeometry relative="1" as="geometry">
            <mxPoint x="140" y="550" as="targetPoint" />
          </mxGeometry>
        </mxCell>
        <mxCell id="8VByRoDsS0wqyo2PORcs-11" value="name" style="ellipse;whiteSpace=wrap;html=1;" parent="1" vertex="1">
          <mxGeometry x="15" y="525" width="70" height="50" as="geometry" />
        </mxCell>
        <mxCell id="8VByRoDsS0wqyo2PORcs-26" style="edgeStyle=orthogonalEdgeStyle;rounded=0;orthogonalLoop=1;jettySize=auto;html=1;exitX=1;exitY=0.5;exitDx=0;exitDy=0;" parent="1" source="8VByRoDsS0wqyo2PORcs-12" edge="1">
          <mxGeometry relative="1" as="geometry">
            <mxPoint x="140" y="620" as="targetPoint" />
          </mxGeometry>
        </mxCell>
        <mxCell id="8VByRoDsS0wqyo2PORcs-12" value="contact" style="ellipse;whiteSpace=wrap;html=1;" parent="1" vertex="1">
          <mxGeometry x="14" y="595" width="70" height="50" as="geometry" />
        </mxCell>
        <mxCell id="8VByRoDsS0wqyo2PORcs-25" style="edgeStyle=orthogonalEdgeStyle;rounded=0;orthogonalLoop=1;jettySize=auto;html=1;exitX=1;exitY=0.5;exitDx=0;exitDy=0;" parent="1" source="8VByRoDsS0wqyo2PORcs-13" edge="1">
          <mxGeometry relative="1" as="geometry">
            <mxPoint x="140" y="690" as="targetPoint" />
          </mxGeometry>
        </mxCell>
        <mxCell id="8VByRoDsS0wqyo2PORcs-13" value="available&lt;div&gt;Date&lt;/div&gt;" style="ellipse;whiteSpace=wrap;html=1;" parent="1" vertex="1">
          <mxGeometry x="14" y="665" width="76" height="50" as="geometry" />
        </mxCell>
        <mxCell id="8VByRoDsS0wqyo2PORcs-14" value="1" style="text;html=1;align=center;verticalAlign=middle;resizable=0;points=[];autosize=1;strokeColor=none;fillColor=none;" parent="1" vertex="1">
          <mxGeometry x="120" y="345" width="30" height="30" as="geometry" />
        </mxCell>
        <mxCell id="8VByRoDsS0wqyo2PORcs-15" value="1" style="text;html=1;align=center;verticalAlign=middle;resizable=0;points=[];autosize=1;strokeColor=none;fillColor=none;" parent="1" vertex="1">
          <mxGeometry x="115" y="243" width="30" height="30" as="geometry" />
        </mxCell>
        <mxCell id="8VByRoDsS0wqyo2PORcs-24" style="edgeStyle=orthogonalEdgeStyle;rounded=0;orthogonalLoop=1;jettySize=auto;html=1;exitX=1;exitY=0.5;exitDx=0;exitDy=0;" parent="1" source="8VByRoDsS0wqyo2PORcs-16" edge="1">
          <mxGeometry relative="1" as="geometry">
            <mxPoint x="140" y="760" as="targetPoint" />
          </mxGeometry>
        </mxCell>
        <mxCell id="8VByRoDsS0wqyo2PORcs-16" value="CV_name" style="ellipse;whiteSpace=wrap;html=1;" parent="1" vertex="1">
          <mxGeometry x="17" y="735" width="70" height="50" as="geometry" />
        </mxCell>
        <mxCell id="8VByRoDsS0wqyo2PORcs-23" style="edgeStyle=orthogonalEdgeStyle;rounded=0;orthogonalLoop=1;jettySize=auto;html=1;exitX=1;exitY=0.5;exitDx=0;exitDy=0;" parent="1" source="8VByRoDsS0wqyo2PORcs-17" edge="1">
          <mxGeometry relative="1" as="geometry">
            <mxPoint x="140" y="825" as="targetPoint" />
          </mxGeometry>
        </mxCell>
        <mxCell id="8VByRoDsS0wqyo2PORcs-17" value="Git Hub" style="ellipse;whiteSpace=wrap;html=1;" parent="1" vertex="1">
          <mxGeometry x="14" y="805" width="70" height="40" as="geometry" />
        </mxCell>
        <mxCell id="8VByRoDsS0wqyo2PORcs-18" value="Linkedin" style="ellipse;whiteSpace=wrap;html=1;" parent="1" vertex="1">
          <mxGeometry x="14" y="865" width="70" height="40" as="geometry" />
        </mxCell>
        <mxCell id="8VByRoDsS0wqyo2PORcs-20" value="" style="endArrow=none;html=1;rounded=0;exitX=0.5;exitY=1;exitDx=0;exitDy=0;" parent="1" source="8VByRoDsS0wqyo2PORcs-1" edge="1">
          <mxGeometry width="50" height="50" relative="1" as="geometry">
            <mxPoint x="400" y="475" as="sourcePoint" />
            <mxPoint x="145" y="885.7999877929688" as="targetPoint" />
          </mxGeometry>
        </mxCell>
        <mxCell id="8VByRoDsS0wqyo2PORcs-21" value="" style="endArrow=none;html=1;rounded=0;exitX=1;exitY=0.5;exitDx=0;exitDy=0;" parent="1" source="8VByRoDsS0wqyo2PORcs-18" edge="1">
          <mxGeometry width="50" height="50" relative="1" as="geometry">
            <mxPoint x="400" y="695" as="sourcePoint" />
            <mxPoint x="150" y="885" as="targetPoint" />
          </mxGeometry>
        </mxCell>
        <mxCell id="8VByRoDsS0wqyo2PORcs-29" value="Job" style="rounded=0;whiteSpace=wrap;html=1;" parent="1" vertex="1">
          <mxGeometry x="330" y="175" width="70" height="40" as="geometry" />
        </mxCell>
        <mxCell id="8VByRoDsS0wqyo2PORcs-30" value="Can Apply" style="rhombus;whiteSpace=wrap;html=1;" parent="1" vertex="1">
          <mxGeometry x="260" y="265" width="80" height="80" as="geometry" />
        </mxCell>
        <mxCell id="8VByRoDsS0wqyo2PORcs-31" value="" style="shape=link;html=1;rounded=0;exitX=1;exitY=0;exitDx=0;exitDy=0;" parent="1" source="8VByRoDsS0wqyo2PORcs-1" target="8VByRoDsS0wqyo2PORcs-30" edge="1">
          <mxGeometry width="100" relative="1" as="geometry">
            <mxPoint x="340" y="385" as="sourcePoint" />
            <mxPoint x="440" y="385" as="targetPoint" />
          </mxGeometry>
        </mxCell>
        <mxCell id="8VByRoDsS0wqyo2PORcs-32" value="" style="endArrow=none;html=1;rounded=0;exitX=1;exitY=0;exitDx=0;exitDy=0;entryX=0.25;entryY=1;entryDx=0;entryDy=0;" parent="1" source="8VByRoDsS0wqyo2PORcs-30" target="8VByRoDsS0wqyo2PORcs-29" edge="1">
          <mxGeometry width="50" height="50" relative="1" as="geometry">
            <mxPoint x="370" y="405" as="sourcePoint" />
            <mxPoint x="420" y="355" as="targetPoint" />
          </mxGeometry>
        </mxCell>
        <mxCell id="8VByRoDsS0wqyo2PORcs-33" value="N" style="text;html=1;align=center;verticalAlign=middle;resizable=0;points=[];autosize=1;strokeColor=none;fillColor=none;" parent="1" vertex="1">
          <mxGeometry x="200" y="340" width="30" height="30" as="geometry" />
        </mxCell>
        <mxCell id="8VByRoDsS0wqyo2PORcs-34" value="M" style="text;html=1;align=center;verticalAlign=middle;resizable=0;points=[];autosize=1;strokeColor=none;fillColor=none;" parent="1" vertex="1">
          <mxGeometry x="345" y="213" width="30" height="30" as="geometry" />
        </mxCell>
        <mxCell id="8VByRoDsS0wqyo2PORcs-49" style="edgeStyle=orthogonalEdgeStyle;rounded=0;orthogonalLoop=1;jettySize=auto;html=1;exitX=0.5;exitY=1;exitDx=0;exitDy=0;" parent="1" source="8VByRoDsS0wqyo2PORcs-35" edge="1">
          <mxGeometry relative="1" as="geometry">
            <mxPoint x="480" y="205" as="targetPoint" />
          </mxGeometry>
        </mxCell>
        <mxCell id="8VByRoDsS0wqyo2PORcs-35" value="&lt;u&gt;JobID&lt;/u&gt;" style="ellipse;whiteSpace=wrap;html=1;" parent="1" vertex="1">
          <mxGeometry x="440" y="140" width="80" height="40" as="geometry" />
        </mxCell>
        <mxCell id="8VByRoDsS0wqyo2PORcs-50" style="edgeStyle=orthogonalEdgeStyle;rounded=0;orthogonalLoop=1;jettySize=auto;html=1;exitX=0.5;exitY=1;exitDx=0;exitDy=0;" parent="1" source="8VByRoDsS0wqyo2PORcs-36" edge="1">
          <mxGeometry relative="1" as="geometry">
            <mxPoint x="580" y="205" as="targetPoint" />
          </mxGeometry>
        </mxCell>
        <mxCell id="8VByRoDsS0wqyo2PORcs-36" value="Title" style="ellipse;whiteSpace=wrap;html=1;" parent="1" vertex="1">
          <mxGeometry x="540" y="135" width="80" height="40" as="geometry" />
        </mxCell>
        <mxCell id="8VByRoDsS0wqyo2PORcs-51" style="edgeStyle=orthogonalEdgeStyle;rounded=0;orthogonalLoop=1;jettySize=auto;html=1;exitX=0.5;exitY=1;exitDx=0;exitDy=0;" parent="1" source="8VByRoDsS0wqyo2PORcs-37" edge="1">
          <mxGeometry relative="1" as="geometry">
            <mxPoint x="675" y="205" as="targetPoint" />
          </mxGeometry>
        </mxCell>
        <mxCell id="8VByRoDsS0wqyo2PORcs-37" value="Description" style="ellipse;whiteSpace=wrap;html=1;" parent="1" vertex="1">
          <mxGeometry x="640" y="135" width="70" height="50" as="geometry" />
        </mxCell>
        <mxCell id="8VByRoDsS0wqyo2PORcs-52" style="edgeStyle=orthogonalEdgeStyle;rounded=0;orthogonalLoop=1;jettySize=auto;html=1;exitX=0.5;exitY=1;exitDx=0;exitDy=0;" parent="1" source="8VByRoDsS0wqyo2PORcs-38" edge="1">
          <mxGeometry relative="1" as="geometry">
            <mxPoint x="770" y="205" as="targetPoint" />
          </mxGeometry>
        </mxCell>
        <mxCell id="8VByRoDsS0wqyo2PORcs-38" value="No. available&lt;div&gt;position&lt;/div&gt;" style="ellipse;whiteSpace=wrap;html=1;" parent="1" vertex="1">
          <mxGeometry x="730" y="135" width="80" height="60" as="geometry" />
        </mxCell>
        <mxCell id="8VByRoDsS0wqyo2PORcs-48" style="edgeStyle=orthogonalEdgeStyle;rounded=0;orthogonalLoop=1;jettySize=auto;html=1;exitX=0.5;exitY=0;exitDx=0;exitDy=0;" parent="1" source="8VByRoDsS0wqyo2PORcs-39" edge="1">
          <mxGeometry relative="1" as="geometry">
            <mxPoint x="444" y="205" as="targetPoint" />
          </mxGeometry>
        </mxCell>
        <mxCell id="8VByRoDsS0wqyo2PORcs-39" value="Active status" style="ellipse;whiteSpace=wrap;html=1;" parent="1" vertex="1">
          <mxGeometry x="414" y="230" width="60" height="40" as="geometry" />
        </mxCell>
        <mxCell id="8VByRoDsS0wqyo2PORcs-47" style="edgeStyle=orthogonalEdgeStyle;rounded=0;orthogonalLoop=1;jettySize=auto;html=1;exitX=0.5;exitY=0;exitDx=0;exitDy=0;" parent="1" source="8VByRoDsS0wqyo2PORcs-40" edge="1">
          <mxGeometry relative="1" as="geometry">
            <mxPoint x="540" y="205" as="targetPoint" />
          </mxGeometry>
        </mxCell>
        <mxCell id="8VByRoDsS0wqyo2PORcs-40" value="Location" style="ellipse;whiteSpace=wrap;html=1;" parent="1" vertex="1">
          <mxGeometry x="500" y="230" width="80" height="50" as="geometry" />
        </mxCell>
        <mxCell id="8VByRoDsS0wqyo2PORcs-46" style="edgeStyle=orthogonalEdgeStyle;rounded=0;orthogonalLoop=1;jettySize=auto;html=1;exitX=0.5;exitY=0;exitDx=0;exitDy=0;" parent="1" source="8VByRoDsS0wqyo2PORcs-41" edge="1">
          <mxGeometry relative="1" as="geometry">
            <mxPoint x="640" y="205" as="targetPoint" />
          </mxGeometry>
        </mxCell>
        <mxCell id="8VByRoDsS0wqyo2PORcs-41" value="Department" style="ellipse;whiteSpace=wrap;html=1;" parent="1" vertex="1">
          <mxGeometry x="602.5" y="230" width="75" height="50" as="geometry" />
        </mxCell>
        <mxCell id="8VByRoDsS0wqyo2PORcs-42" value="Evaluation&amp;nbsp;&lt;div&gt;criteria&lt;/div&gt;&lt;div&gt;full marks&lt;/div&gt;" style="ellipse;whiteSpace=wrap;html=1;" parent="1" vertex="1">
          <mxGeometry x="700" y="235" width="100" height="70" as="geometry" />
        </mxCell>
        <mxCell id="8VByRoDsS0wqyo2PORcs-45" style="edgeStyle=orthogonalEdgeStyle;rounded=0;orthogonalLoop=1;jettySize=auto;html=1;exitX=0.5;exitY=0;exitDx=0;exitDy=0;" parent="1" source="8VByRoDsS0wqyo2PORcs-43" edge="1">
          <mxGeometry relative="1" as="geometry">
            <mxPoint x="750" y="205" as="targetPoint" />
          </mxGeometry>
        </mxCell>
        <mxCell id="8VByRoDsS0wqyo2PORcs-44" value="" style="endArrow=none;html=1;rounded=0;exitX=1;exitY=0.75;exitDx=0;exitDy=0;" parent="1" source="8VByRoDsS0wqyo2PORcs-29" edge="1">
          <mxGeometry width="50" height="50" relative="1" as="geometry">
            <mxPoint x="370" y="435" as="sourcePoint" />
            <mxPoint x="780" y="205" as="targetPoint" />
          </mxGeometry>
        </mxCell>
        <mxCell id="8VByRoDsS0wqyo2PORcs-53" value="Admin" style="rounded=0;whiteSpace=wrap;html=1;" parent="1" vertex="1">
          <mxGeometry x="630" y="475" width="90" height="50" as="geometry" />
        </mxCell>
        <mxCell id="8VByRoDsS0wqyo2PORcs-62" style="edgeStyle=orthogonalEdgeStyle;rounded=0;orthogonalLoop=1;jettySize=auto;html=1;exitX=0;exitY=0.5;exitDx=0;exitDy=0;" parent="1" source="8VByRoDsS0wqyo2PORcs-54" edge="1">
          <mxGeometry relative="1" as="geometry">
            <mxPoint x="680" y="730" as="targetPoint" />
          </mxGeometry>
        </mxCell>
        <mxCell id="8VByRoDsS0wqyo2PORcs-54" value="&lt;u&gt;Admin ID&lt;/u&gt;" style="ellipse;whiteSpace=wrap;html=1;" parent="1" vertex="1">
          <mxGeometry x="720" y="700" width="82.5" height="60" as="geometry" />
        </mxCell>
        <mxCell id="8VByRoDsS0wqyo2PORcs-61" style="edgeStyle=orthogonalEdgeStyle;rounded=0;orthogonalLoop=1;jettySize=auto;html=1;exitX=0;exitY=0.5;exitDx=0;exitDy=0;" parent="1" source="8VByRoDsS0wqyo2PORcs-55" edge="1">
          <mxGeometry relative="1" as="geometry">
            <mxPoint x="680" y="810" as="targetPoint" />
          </mxGeometry>
        </mxCell>
        <mxCell id="8VByRoDsS0wqyo2PORcs-55" value="email" style="ellipse;whiteSpace=wrap;html=1;" parent="1" vertex="1">
          <mxGeometry x="730" y="790" width="80" height="40" as="geometry" />
        </mxCell>
        <mxCell id="8VByRoDsS0wqyo2PORcs-56" value="Password" style="ellipse;whiteSpace=wrap;html=1;" parent="1" vertex="1">
          <mxGeometry x="730" y="850" width="80" height="55" as="geometry" />
        </mxCell>
        <mxCell id="8VByRoDsS0wqyo2PORcs-59" style="edgeStyle=orthogonalEdgeStyle;rounded=0;orthogonalLoop=1;jettySize=auto;html=1;exitX=0;exitY=0.5;exitDx=0;exitDy=0;" parent="1" source="8VByRoDsS0wqyo2PORcs-57" edge="1">
          <mxGeometry relative="1" as="geometry">
            <mxPoint x="670" y="960" as="targetPoint" />
          </mxGeometry>
        </mxCell>
        <mxCell id="8VByRoDsS0wqyo2PORcs-57" value="Name" style="ellipse;whiteSpace=wrap;html=1;" parent="1" vertex="1">
          <mxGeometry x="722.5" y="935" width="80" height="50" as="geometry" />
        </mxCell>
        <mxCell id="8VByRoDsS0wqyo2PORcs-58" value="" style="endArrow=none;html=1;rounded=0;entryX=0.5;entryY=1;entryDx=0;entryDy=0;" parent="1" target="8VByRoDsS0wqyo2PORcs-53" edge="1">
          <mxGeometry width="50" height="50" relative="1" as="geometry">
            <mxPoint x="670" y="970" as="sourcePoint" />
            <mxPoint x="450" y="615" as="targetPoint" />
          </mxGeometry>
        </mxCell>
        <mxCell id="8VByRoDsS0wqyo2PORcs-67" value="" style="endArrow=classic;html=1;rounded=0;exitX=0;exitY=0.5;exitDx=0;exitDy=0;" parent="1" source="8VByRoDsS0wqyo2PORcs-56" edge="1">
          <mxGeometry width="50" height="50" relative="1" as="geometry">
            <mxPoint x="400" y="800" as="sourcePoint" />
            <mxPoint x="670" y="878" as="targetPoint" />
          </mxGeometry>
        </mxCell>
        <mxCell id="8VByRoDsS0wqyo2PORcs-68" value="Comment" style="rounded=0;whiteSpace=wrap;html=1;" parent="1" vertex="1">
          <mxGeometry x="450" y="385" width="86" height="50" as="geometry" />
        </mxCell>
        <mxCell id="8VByRoDsS0wqyo2PORcs-69" value="Can Add" style="rhombus;whiteSpace=wrap;html=1;" parent="1" vertex="1">
          <mxGeometry x="635" y="370" width="80" height="80" as="geometry" />
        </mxCell>
        <mxCell id="8VByRoDsS0wqyo2PORcs-71" value="" style="shape=link;html=1;rounded=0;entryX=0;entryY=0.5;entryDx=0;entryDy=0;exitX=1;exitY=0.5;exitDx=0;exitDy=0;" parent="1" source="8VByRoDsS0wqyo2PORcs-68" target="8VByRoDsS0wqyo2PORcs-69" edge="1">
          <mxGeometry width="100" relative="1" as="geometry">
            <mxPoint x="380" y="405" as="sourcePoint" />
            <mxPoint x="480" y="535" as="targetPoint" />
          </mxGeometry>
        </mxCell>
        <mxCell id="8VByRoDsS0wqyo2PORcs-72" value="" style="endArrow=none;html=1;rounded=0;exitX=0.5;exitY=0;exitDx=0;exitDy=0;entryX=0.5;entryY=1;entryDx=0;entryDy=0;" parent="1" source="8VByRoDsS0wqyo2PORcs-53" target="8VByRoDsS0wqyo2PORcs-69" edge="1">
          <mxGeometry width="50" height="50" relative="1" as="geometry">
            <mxPoint x="400" y="435" as="sourcePoint" />
            <mxPoint x="450" y="385" as="targetPoint" />
          </mxGeometry>
        </mxCell>
        <mxCell id="8VByRoDsS0wqyo2PORcs-73" value="1" style="text;html=1;align=center;verticalAlign=middle;resizable=0;points=[];autosize=1;strokeColor=none;fillColor=none;" parent="1" vertex="1">
          <mxGeometry x="675" y="443" width="30" height="30" as="geometry" />
        </mxCell>
        <mxCell id="8VByRoDsS0wqyo2PORcs-74" value="N" style="text;html=1;align=center;verticalAlign=middle;resizable=0;points=[];autosize=1;strokeColor=none;fillColor=none;" parent="1" vertex="1">
          <mxGeometry x="540" y="385" width="30" height="30" as="geometry" />
        </mxCell>
        <mxCell id="8VByRoDsS0wqyo2PORcs-75" value="&lt;u&gt;CommentID&lt;/u&gt;" style="ellipse;whiteSpace=wrap;html=1;" parent="1" vertex="1">
          <mxGeometry x="414" y="475" width="76" height="50" as="geometry" />
        </mxCell>
        <mxCell id="8VByRoDsS0wqyo2PORcs-76" value="comment" style="ellipse;whiteSpace=wrap;html=1;" parent="1" vertex="1">
          <mxGeometry x="530" y="485" width="70" height="50" as="geometry" />
        </mxCell>
        <mxCell id="8VByRoDsS0wqyo2PORcs-77" value="" style="endArrow=none;html=1;rounded=0;exitX=0.5;exitY=0;exitDx=0;exitDy=0;entryX=0.25;entryY=1;entryDx=0;entryDy=0;" parent="1" source="8VByRoDsS0wqyo2PORcs-75" target="8VByRoDsS0wqyo2PORcs-68" edge="1">
          <mxGeometry width="50" height="50" relative="1" as="geometry">
            <mxPoint x="360" y="465" as="sourcePoint" />
            <mxPoint x="410" y="415" as="targetPoint" />
          </mxGeometry>
        </mxCell>
        <mxCell id="8VByRoDsS0wqyo2PORcs-78" value="" style="endArrow=none;html=1;rounded=0;entryX=0.679;entryY=1.048;entryDx=0;entryDy=0;entryPerimeter=0;exitX=0.286;exitY=0.024;exitDx=0;exitDy=0;exitPerimeter=0;" parent="1" source="8VByRoDsS0wqyo2PORcs-76" target="8VByRoDsS0wqyo2PORcs-68" edge="1">
          <mxGeometry width="50" height="50" relative="1" as="geometry">
            <mxPoint x="360" y="465" as="sourcePoint" />
            <mxPoint x="410" y="415" as="targetPoint" />
          </mxGeometry>
        </mxCell>
        <mxCell id="8VByRoDsS0wqyo2PORcs-79" value="Interview" style="rounded=0;whiteSpace=wrap;html=1;" parent="1" vertex="1">
          <mxGeometry x="205" y="565" width="85" height="30" as="geometry" />
        </mxCell>
        <mxCell id="8VByRoDsS0wqyo2PORcs-80" value="Has" style="rhombus;whiteSpace=wrap;html=1;" parent="1" vertex="1">
          <mxGeometry x="190" y="475" width="70" height="60" as="geometry" />
        </mxCell>
        <mxCell id="8VByRoDsS0wqyo2PORcs-81" value="" style="shape=link;html=1;rounded=0;exitX=0.5;exitY=0;exitDx=0;exitDy=0;entryX=0.5;entryY=1;entryDx=0;entryDy=0;" parent="1" source="8VByRoDsS0wqyo2PORcs-79" target="8VByRoDsS0wqyo2PORcs-80" edge="1">
          <mxGeometry width="100" relative="1" as="geometry">
            <mxPoint x="340" y="565" as="sourcePoint" />
            <mxPoint x="440" y="565" as="targetPoint" />
          </mxGeometry>
        </mxCell>
        <mxCell id="8VByRoDsS0wqyo2PORcs-82" value="" style="endArrow=none;html=1;rounded=0;exitX=1;exitY=1;exitDx=0;exitDy=0;entryX=0.5;entryY=0;entryDx=0;entryDy=0;" parent="1" source="8VByRoDsS0wqyo2PORcs-1" target="8VByRoDsS0wqyo2PORcs-80" edge="1">
          <mxGeometry width="50" height="50" relative="1" as="geometry">
            <mxPoint x="370" y="585" as="sourcePoint" />
            <mxPoint x="420" y="535" as="targetPoint" />
          </mxGeometry>
        </mxCell>
        <mxCell id="8VByRoDsS0wqyo2PORcs-83" value="1" style="text;html=1;align=center;verticalAlign=middle;resizable=0;points=[];autosize=1;strokeColor=none;fillColor=none;" parent="1" vertex="1">
          <mxGeometry x="185" y="433" width="30" height="30" as="geometry" />
        </mxCell>
        <mxCell id="8VByRoDsS0wqyo2PORcs-84" value="N" style="text;html=1;align=center;verticalAlign=middle;resizable=0;points=[];autosize=1;strokeColor=none;fillColor=none;" parent="1" vertex="1">
          <mxGeometry x="210" y="545" width="30" height="30" as="geometry" />
        </mxCell>
        <mxCell id="8VByRoDsS0wqyo2PORcs-133" style="edgeStyle=orthogonalEdgeStyle;rounded=0;orthogonalLoop=1;jettySize=auto;html=1;exitX=1;exitY=0.5;exitDx=0;exitDy=0;" parent="1" source="8VByRoDsS0wqyo2PORcs-85" edge="1">
          <mxGeometry relative="1" as="geometry">
            <mxPoint x="260" y="658" as="targetPoint" />
          </mxGeometry>
        </mxCell>
        <mxCell id="8VByRoDsS0wqyo2PORcs-85" value="Date and time" style="ellipse;whiteSpace=wrap;html=1;" parent="1" vertex="1">
          <mxGeometry x="160" y="625" width="80" height="65" as="geometry" />
        </mxCell>
        <mxCell id="8VByRoDsS0wqyo2PORcs-132" style="edgeStyle=orthogonalEdgeStyle;rounded=0;orthogonalLoop=1;jettySize=auto;html=1;exitX=1;exitY=0.5;exitDx=0;exitDy=0;" parent="1" source="8VByRoDsS0wqyo2PORcs-86" edge="1">
          <mxGeometry relative="1" as="geometry">
            <mxPoint x="260" y="743" as="targetPoint" />
          </mxGeometry>
        </mxCell>
        <mxCell id="8VByRoDsS0wqyo2PORcs-86" value="Duration" style="ellipse;whiteSpace=wrap;html=1;" parent="1" vertex="1">
          <mxGeometry x="160" y="722.5" width="80" height="40" as="geometry" />
        </mxCell>
        <mxCell id="8VByRoDsS0wqyo2PORcs-90" value="Vote&lt;div&gt;(marks)&lt;/div&gt;" style="rounded=0;whiteSpace=wrap;html=1;" parent="1" vertex="1">
          <mxGeometry x="375" y="585" width="75" height="40" as="geometry" />
        </mxCell>
        <mxCell id="8VByRoDsS0wqyo2PORcs-91" value="" style="ellipse;whiteSpace=wrap;html=1;gradientColor=none;fillStyle=hatch;" parent="1" vertex="1">
          <mxGeometry x="450" y="735" width="120" height="80" as="geometry" />
        </mxCell>
        <mxCell id="8VByRoDsS0wqyo2PORcs-93" value="Evaluation&amp;nbsp;&lt;div&gt;criteria&lt;/div&gt;&lt;div&gt;&lt;span style=&quot;background-color: initial;&quot;&gt;marks&lt;/span&gt;&lt;/div&gt;" style="ellipse;whiteSpace=wrap;html=1;" parent="1" vertex="1">
          <mxGeometry x="460" y="740" width="100" height="70" as="geometry" />
        </mxCell>
        <mxCell id="8VByRoDsS0wqyo2PORcs-95" value="Can&lt;div&gt;Vote&lt;/div&gt;" style="rhombus;whiteSpace=wrap;html=1;" parent="1" vertex="1">
          <mxGeometry x="515" y="565" width="80" height="80" as="geometry" />
        </mxCell>
        <mxCell id="8VByRoDsS0wqyo2PORcs-96" value="" style="shape=link;html=1;rounded=0;exitX=1;exitY=0.75;exitDx=0;exitDy=0;entryX=0;entryY=0.5;entryDx=0;entryDy=0;" parent="1" source="8VByRoDsS0wqyo2PORcs-90" target="8VByRoDsS0wqyo2PORcs-95" edge="1">
          <mxGeometry width="100" relative="1" as="geometry">
            <mxPoint x="340" y="545" as="sourcePoint" />
            <mxPoint x="440" y="545" as="targetPoint" />
          </mxGeometry>
        </mxCell>
        <mxCell id="8VByRoDsS0wqyo2PORcs-98" value="" style="endArrow=none;html=1;rounded=0;exitX=1;exitY=0;exitDx=0;exitDy=0;entryX=0;entryY=1;entryDx=0;entryDy=0;" parent="1" source="8VByRoDsS0wqyo2PORcs-95" target="8VByRoDsS0wqyo2PORcs-53" edge="1">
          <mxGeometry width="50" height="50" relative="1" as="geometry">
            <mxPoint x="370" y="575" as="sourcePoint" />
            <mxPoint x="420" y="525" as="targetPoint" />
          </mxGeometry>
        </mxCell>
        <mxCell id="8VByRoDsS0wqyo2PORcs-99" value="N" style="text;html=1;align=center;verticalAlign=middle;resizable=0;points=[];autosize=1;strokeColor=none;fillColor=none;" parent="1" vertex="1">
          <mxGeometry x="450" y="615" width="30" height="30" as="geometry" />
        </mxCell>
        <mxCell id="8VByRoDsS0wqyo2PORcs-100" value="1" style="text;html=1;align=center;verticalAlign=middle;resizable=0;points=[];autosize=1;strokeColor=none;fillColor=none;" parent="1" vertex="1">
          <mxGeometry x="602.5" y="535" width="30" height="30" as="geometry" />
        </mxCell>
        <mxCell id="8VByRoDsS0wqyo2PORcs-101" value="Has" style="rhombus;whiteSpace=wrap;html=1;" parent="1" vertex="1">
          <mxGeometry x="300" y="463" width="70" height="60" as="geometry" />
        </mxCell>
        <mxCell id="8VByRoDsS0wqyo2PORcs-103" value="" style="endArrow=none;html=1;rounded=0;exitX=1;exitY=0.5;exitDx=0;exitDy=0;entryX=0.5;entryY=0;entryDx=0;entryDy=0;" parent="1" source="8VByRoDsS0wqyo2PORcs-1" target="8VByRoDsS0wqyo2PORcs-101" edge="1">
          <mxGeometry width="50" height="50" relative="1" as="geometry">
            <mxPoint x="370" y="575" as="sourcePoint" />
            <mxPoint x="420" y="525" as="targetPoint" />
          </mxGeometry>
        </mxCell>
        <mxCell id="8VByRoDsS0wqyo2PORcs-104" value="" style="shape=link;html=1;rounded=0;entryX=0;entryY=0;entryDx=0;entryDy=0;exitX=0.5;exitY=1;exitDx=0;exitDy=0;" parent="1" source="8VByRoDsS0wqyo2PORcs-101" target="8VByRoDsS0wqyo2PORcs-90" edge="1">
          <mxGeometry width="100" relative="1" as="geometry">
            <mxPoint x="340" y="545" as="sourcePoint" />
            <mxPoint x="440" y="545" as="targetPoint" />
          </mxGeometry>
        </mxCell>
        <mxCell id="8VByRoDsS0wqyo2PORcs-105" value="1" style="text;html=1;align=center;verticalAlign=middle;resizable=0;points=[];autosize=1;strokeColor=none;fillColor=none;" parent="1" vertex="1">
          <mxGeometry x="240" y="403" width="30" height="30" as="geometry" />
        </mxCell>
        <mxCell id="8VByRoDsS0wqyo2PORcs-106" value="N" style="text;html=1;align=center;verticalAlign=middle;resizable=0;points=[];autosize=1;strokeColor=none;fillColor=none;" parent="1" vertex="1">
          <mxGeometry x="365" y="543" width="30" height="30" as="geometry" />
        </mxCell>
        <mxCell id="8VByRoDsS0wqyo2PORcs-108" value="Has" style="rhombus;whiteSpace=wrap;html=1;" parent="1" vertex="1">
          <mxGeometry x="325" y="363" width="70" height="60" as="geometry" />
        </mxCell>
        <mxCell id="8VByRoDsS0wqyo2PORcs-109" value="" style="endArrow=none;html=1;rounded=0;exitX=-0.08;exitY=1.147;exitDx=0;exitDy=0;exitPerimeter=0;entryX=0;entryY=0.5;entryDx=0;entryDy=0;" parent="1" source="8VByRoDsS0wqyo2PORcs-33" target="8VByRoDsS0wqyo2PORcs-108" edge="1">
          <mxGeometry width="50" height="50" relative="1" as="geometry">
            <mxPoint x="240" y="428" as="sourcePoint" />
            <mxPoint x="310.71067811865476" y="378" as="targetPoint" />
          </mxGeometry>
        </mxCell>
        <mxCell id="8VByRoDsS0wqyo2PORcs-110" value="" style="shape=link;html=1;rounded=0;entryX=0;entryY=0.5;entryDx=0;entryDy=0;exitX=1;exitY=0.5;exitDx=0;exitDy=0;" parent="1" source="8VByRoDsS0wqyo2PORcs-108" target="8VByRoDsS0wqyo2PORcs-68" edge="1">
          <mxGeometry width="100" relative="1" as="geometry">
            <mxPoint x="400" y="395" as="sourcePoint" />
            <mxPoint x="440" y="395" as="targetPoint" />
          </mxGeometry>
        </mxCell>
        <mxCell id="8VByRoDsS0wqyo2PORcs-112" value="1" style="text;html=1;align=center;verticalAlign=middle;resizable=0;points=[];autosize=1;strokeColor=none;fillColor=none;" parent="1" vertex="1">
          <mxGeometry x="232.5" y="363" width="30" height="30" as="geometry" />
        </mxCell>
        <mxCell id="8VByRoDsS0wqyo2PORcs-113" value="N" style="text;html=1;align=center;verticalAlign=middle;resizable=0;points=[];autosize=1;strokeColor=none;fillColor=none;" parent="1" vertex="1">
          <mxGeometry x="415" y="373" width="30" height="30" as="geometry" />
        </mxCell>
        <mxCell id="8VByRoDsS0wqyo2PORcs-114" value="Refferences" style="rhombus;whiteSpace=wrap;html=1;" parent="1" vertex="1">
          <mxGeometry x="374" y="288" width="76" height="75" as="geometry" />
        </mxCell>
        <mxCell id="8VByRoDsS0wqyo2PORcs-115" value="" style="shape=link;html=1;rounded=0;entryX=0.5;entryY=0;entryDx=0;entryDy=0;exitX=1;exitY=1;exitDx=0;exitDy=0;" parent="1" source="8VByRoDsS0wqyo2PORcs-114" target="8VByRoDsS0wqyo2PORcs-68" edge="1">
          <mxGeometry width="100" relative="1" as="geometry">
            <mxPoint x="340" y="385" as="sourcePoint" />
            <mxPoint x="440" y="385" as="targetPoint" />
          </mxGeometry>
        </mxCell>
        <mxCell id="8VByRoDsS0wqyo2PORcs-116" value="" style="endArrow=none;html=1;rounded=0;exitX=0.75;exitY=1;exitDx=0;exitDy=0;entryX=0;entryY=0;entryDx=0;entryDy=0;" parent="1" source="8VByRoDsS0wqyo2PORcs-29" target="8VByRoDsS0wqyo2PORcs-114" edge="1">
          <mxGeometry width="50" height="50" relative="1" as="geometry">
            <mxPoint x="370" y="405" as="sourcePoint" />
            <mxPoint x="420" y="355" as="targetPoint" />
          </mxGeometry>
        </mxCell>
        <mxCell id="8VByRoDsS0wqyo2PORcs-117" value="1" style="text;html=1;align=center;verticalAlign=middle;resizable=0;points=[];autosize=1;strokeColor=none;fillColor=none;" parent="1" vertex="1">
          <mxGeometry x="365" y="233" width="30" height="30" as="geometry" />
        </mxCell>
        <mxCell id="8VByRoDsS0wqyo2PORcs-118" value="N" style="text;html=1;align=center;verticalAlign=middle;resizable=0;points=[];autosize=1;strokeColor=none;fillColor=none;" parent="1" vertex="1">
          <mxGeometry x="475" y="353" width="30" height="30" as="geometry" />
        </mxCell>
        <mxCell id="8VByRoDsS0wqyo2PORcs-121" value="&lt;u&gt;VoteID&lt;/u&gt;" style="ellipse;whiteSpace=wrap;html=1;" parent="1" vertex="1">
          <mxGeometry x="470" y="665" width="60" height="45" as="geometry" />
        </mxCell>
        <mxCell id="8VByRoDsS0wqyo2PORcs-122" value="Job&lt;div&gt;(Duppicate of Job&lt;/div&gt;&lt;div&gt;Entitiy)&lt;/div&gt;" style="rounded=0;whiteSpace=wrap;html=1;" parent="1" vertex="1">
          <mxGeometry x="325" y="795" width="120" height="60" as="geometry" />
        </mxCell>
        <mxCell id="8VByRoDsS0wqyo2PORcs-123" value="Refferences" style="rhombus;whiteSpace=wrap;html=1;" parent="1" vertex="1">
          <mxGeometry x="355" y="663" width="80" height="80" as="geometry" />
        </mxCell>
        <mxCell id="8VByRoDsS0wqyo2PORcs-124" value="" style="shape=link;html=1;rounded=0;entryX=0.25;entryY=1;entryDx=0;entryDy=0;exitX=0.5;exitY=0;exitDx=0;exitDy=0;" parent="1" source="8VByRoDsS0wqyo2PORcs-123" target="8VByRoDsS0wqyo2PORcs-90" edge="1">
          <mxGeometry width="100" relative="1" as="geometry">
            <mxPoint x="330" y="705" as="sourcePoint" />
            <mxPoint x="430" y="705" as="targetPoint" />
          </mxGeometry>
        </mxCell>
        <mxCell id="8VByRoDsS0wqyo2PORcs-126" value="" style="endArrow=none;html=1;rounded=0;entryX=0.5;entryY=1;entryDx=0;entryDy=0;exitX=0.5;exitY=0;exitDx=0;exitDy=0;" parent="1" source="8VByRoDsS0wqyo2PORcs-122" target="8VByRoDsS0wqyo2PORcs-123" edge="1">
          <mxGeometry width="50" height="50" relative="1" as="geometry">
            <mxPoint x="365" y="703" as="sourcePoint" />
            <mxPoint x="415" y="653" as="targetPoint" />
          </mxGeometry>
        </mxCell>
        <mxCell id="8VByRoDsS0wqyo2PORcs-127" value="N" style="text;html=1;align=center;verticalAlign=middle;resizable=0;points=[];autosize=1;strokeColor=none;fillColor=none;" parent="1" vertex="1">
          <mxGeometry x="385" y="633" width="30" height="30" as="geometry" />
        </mxCell>
        <mxCell id="8VByRoDsS0wqyo2PORcs-128" value="1" style="text;html=1;align=center;verticalAlign=middle;resizable=0;points=[];autosize=1;strokeColor=none;fillColor=none;" parent="1" vertex="1">
          <mxGeometry x="380" y="755" width="30" height="30" as="geometry" />
        </mxCell>
        <mxCell id="8VByRoDsS0wqyo2PORcs-129" value="" style="endArrow=none;html=1;rounded=0;entryX=0.915;entryY=1.03;entryDx=0;entryDy=0;entryPerimeter=0;exitX=0;exitY=0;exitDx=0;exitDy=0;" parent="1" source="8VByRoDsS0wqyo2PORcs-121" target="8VByRoDsS0wqyo2PORcs-90" edge="1">
          <mxGeometry width="50" height="50" relative="1" as="geometry">
            <mxPoint x="350" y="735" as="sourcePoint" />
            <mxPoint x="400" y="685" as="targetPoint" />
          </mxGeometry>
        </mxCell>
        <mxCell id="8VByRoDsS0wqyo2PORcs-130" value="" style="endArrow=none;html=1;rounded=0;entryX=0.75;entryY=1;entryDx=0;entryDy=0;" parent="1" target="8VByRoDsS0wqyo2PORcs-90" edge="1">
          <mxGeometry width="50" height="50" relative="1" as="geometry">
            <mxPoint x="470" y="745" as="sourcePoint" />
            <mxPoint x="400" y="685" as="targetPoint" />
          </mxGeometry>
        </mxCell>
        <mxCell id="8VByRoDsS0wqyo2PORcs-131" value="" style="endArrow=none;html=1;rounded=0;exitX=0.605;exitY=1.073;exitDx=0;exitDy=0;exitPerimeter=0;" parent="1" source="8VByRoDsS0wqyo2PORcs-79" edge="1">
          <mxGeometry width="50" height="50" relative="1" as="geometry">
            <mxPoint x="380" y="720" as="sourcePoint" />
            <mxPoint x="260" y="750" as="targetPoint" />
          </mxGeometry>
        </mxCell>
        <mxCell id="8VByRoDsS0wqyo2PORcs-134" value="For" style="rhombus;whiteSpace=wrap;html=1;" parent="1" vertex="1">
          <mxGeometry x="280" y="663" width="60" height="45" as="geometry" />
        </mxCell>
        <mxCell id="8VByRoDsS0wqyo2PORcs-135" value="" style="shape=link;html=1;rounded=0;exitX=0.75;exitY=1;exitDx=0;exitDy=0;entryX=0.5;entryY=0;entryDx=0;entryDy=0;" parent="1" source="8VByRoDsS0wqyo2PORcs-79" target="8VByRoDsS0wqyo2PORcs-134" edge="1">
          <mxGeometry width="100" relative="1" as="geometry">
            <mxPoint x="360" y="750" as="sourcePoint" />
            <mxPoint x="460" y="750" as="targetPoint" />
          </mxGeometry>
        </mxCell>
        <mxCell id="8VByRoDsS0wqyo2PORcs-136" value="" style="endArrow=none;html=1;rounded=0;exitX=0.162;exitY=0.037;exitDx=0;exitDy=0;exitPerimeter=0;entryX=0.5;entryY=1;entryDx=0;entryDy=0;" parent="1" source="8VByRoDsS0wqyo2PORcs-122" target="8VByRoDsS0wqyo2PORcs-134" edge="1">
          <mxGeometry width="50" height="50" relative="1" as="geometry">
            <mxPoint x="380" y="770" as="sourcePoint" />
            <mxPoint x="430" y="720" as="targetPoint" />
          </mxGeometry>
        </mxCell>
        <mxCell id="8VByRoDsS0wqyo2PORcs-137" value="N" style="text;html=1;align=center;verticalAlign=middle;resizable=0;points=[];autosize=1;strokeColor=none;fillColor=none;" parent="1" vertex="1">
          <mxGeometry x="285" y="588" width="30" height="30" as="geometry" />
        </mxCell>
        <mxCell id="8VByRoDsS0wqyo2PORcs-138" value="1" style="text;html=1;align=center;verticalAlign=middle;resizable=0;points=[];autosize=1;strokeColor=none;fillColor=none;" parent="1" vertex="1">
          <mxGeometry x="335" y="758" width="30" height="30" as="geometry" />
        </mxCell>
        <mxCell id="8VByRoDsS0wqyo2PORcs-140" style="edgeStyle=orthogonalEdgeStyle;rounded=0;orthogonalLoop=1;jettySize=auto;html=1;exitX=1;exitY=0.5;exitDx=0;exitDy=0;" parent="1" source="8VByRoDsS0wqyo2PORcs-139" edge="1">
          <mxGeometry relative="1" as="geometry">
            <mxPoint x="250" y="608" as="targetPoint" />
          </mxGeometry>
        </mxCell>
        <mxCell id="8VByRoDsS0wqyo2PORcs-139" value="&lt;u&gt;ID&lt;/u&gt;" style="ellipse;whiteSpace=wrap;html=1;" parent="1" vertex="1">
          <mxGeometry x="155" y="598" width="50" height="20" as="geometry" />
        </mxCell>
        <mxCell id="Cktu94IESnoxS9tUlBKQ-1" value="Interview&lt;div&gt;(Dupplicate of Interview Entity)&lt;/div&gt;" style="rounded=0;whiteSpace=wrap;html=1;" parent="1" vertex="1">
          <mxGeometry x="696.25" y="626.5" width="130" height="62" as="geometry" />
        </mxCell>
        <mxCell id="Cktu94IESnoxS9tUlBKQ-2" value="Assigns" style="rhombus;whiteSpace=wrap;html=1;" parent="1" vertex="1">
          <mxGeometry x="730" y="523" width="67.5" height="72" as="geometry" />
        </mxCell>
        <mxCell id="Cktu94IESnoxS9tUlBKQ-5" value="" style="shape=link;html=1;rounded=0;exitX=0.5;exitY=0;exitDx=0;exitDy=0;entryX=0.5;entryY=1;entryDx=0;entryDy=0;" parent="1" source="Cktu94IESnoxS9tUlBKQ-1" target="Cktu94IESnoxS9tUlBKQ-2" edge="1">
          <mxGeometry width="100" relative="1" as="geometry">
            <mxPoint x="490" y="550" as="sourcePoint" />
            <mxPoint x="590" y="550" as="targetPoint" />
          </mxGeometry>
        </mxCell>
        <mxCell id="Cktu94IESnoxS9tUlBKQ-6" value="" style="endArrow=none;html=1;rounded=0;entryX=0.5;entryY=0;entryDx=0;entryDy=0;exitX=1;exitY=0.5;exitDx=0;exitDy=0;" parent="1" source="8VByRoDsS0wqyo2PORcs-53" target="Cktu94IESnoxS9tUlBKQ-2" edge="1">
          <mxGeometry width="50" height="50" relative="1" as="geometry">
            <mxPoint x="510" y="580" as="sourcePoint" />
            <mxPoint x="560" y="530" as="targetPoint" />
          </mxGeometry>
        </mxCell>
        <mxCell id="Cktu94IESnoxS9tUlBKQ-7" value="N" style="text;html=1;align=center;verticalAlign=middle;resizable=0;points=[];autosize=1;strokeColor=none;fillColor=none;" parent="1" vertex="1">
          <mxGeometry x="720" y="485" width="30" height="30" as="geometry" />
        </mxCell>
        <mxCell id="Cktu94IESnoxS9tUlBKQ-8" value="M" style="text;html=1;align=center;verticalAlign=middle;resizable=0;points=[];autosize=1;strokeColor=none;fillColor=none;" parent="1" vertex="1">
          <mxGeometry x="765" y="595" width="30" height="30" as="geometry" />
        </mxCell>
        <mxCell id="Nrb_d7e8mc3MyruY62Yd-1" value="Has" style="rhombus;whiteSpace=wrap;html=1;" vertex="1" parent="1">
          <mxGeometry x="530" y="325" width="55" height="45" as="geometry" />
        </mxCell>
        <mxCell id="Nrb_d7e8mc3MyruY62Yd-2" value="Role&lt;div&gt;(Dupplicate)&lt;/div&gt;" style="rounded=0;whiteSpace=wrap;html=1;" vertex="1" parent="1">
          <mxGeometry x="640" y="315" width="80" height="30" as="geometry" />
        </mxCell>
        <mxCell id="Nrb_d7e8mc3MyruY62Yd-3" value="" style="shape=link;html=1;rounded=0;exitX=0.75;exitY=0;exitDx=0;exitDy=0;entryX=0.5;entryY=1;entryDx=0;entryDy=0;" edge="1" parent="1" source="8VByRoDsS0wqyo2PORcs-68" target="Nrb_d7e8mc3MyruY62Yd-1">
          <mxGeometry width="100" relative="1" as="geometry">
            <mxPoint x="500" y="380" as="sourcePoint" />
            <mxPoint x="600" y="380" as="targetPoint" />
          </mxGeometry>
        </mxCell>
        <mxCell id="Nrb_d7e8mc3MyruY62Yd-4" value="" style="endArrow=none;html=1;rounded=0;entryX=0;entryY=0.75;entryDx=0;entryDy=0;exitX=1;exitY=0.5;exitDx=0;exitDy=0;" edge="1" parent="1" source="Nrb_d7e8mc3MyruY62Yd-1" target="Nrb_d7e8mc3MyruY62Yd-2">
          <mxGeometry width="50" height="50" relative="1" as="geometry">
            <mxPoint x="530" y="410" as="sourcePoint" />
            <mxPoint x="580" y="360" as="targetPoint" />
          </mxGeometry>
        </mxCell>
        <mxCell id="Nrb_d7e8mc3MyruY62Yd-6" value="1" style="text;html=1;align=center;verticalAlign=middle;resizable=0;points=[];autosize=1;strokeColor=none;fillColor=none;" vertex="1" parent="1">
          <mxGeometry x="605" y="308" width="30" height="30" as="geometry" />
        </mxCell>
        <mxCell id="Nrb_d7e8mc3MyruY62Yd-7" value="N" style="text;html=1;align=center;verticalAlign=middle;resizable=0;points=[];autosize=1;strokeColor=none;fillColor=none;" vertex="1" parent="1">
          <mxGeometry x="505" y="358" width="30" height="30" as="geometry" />
        </mxCell>
        <mxCell id="Nrb_d7e8mc3MyruY62Yd-8" value="Has" style="rhombus;whiteSpace=wrap;html=1;" vertex="1" parent="1">
          <mxGeometry x="545" y="643.5" width="60" height="45" as="geometry" />
        </mxCell>
        <mxCell id="Nrb_d7e8mc3MyruY62Yd-9" value="Role&lt;div&gt;(Dupplicate)&lt;/div&gt;" style="rounded=0;whiteSpace=wrap;html=1;" vertex="1" parent="1">
          <mxGeometry x="580" y="720" width="70" height="35" as="geometry" />
        </mxCell>
        <mxCell id="Nrb_d7e8mc3MyruY62Yd-10" value="" style="shape=link;html=1;rounded=0;exitX=1;exitY=1;exitDx=0;exitDy=0;entryX=0;entryY=0.5;entryDx=0;entryDy=0;" edge="1" parent="1" source="8VByRoDsS0wqyo2PORcs-90" target="Nrb_d7e8mc3MyruY62Yd-8">
          <mxGeometry width="100" relative="1" as="geometry">
            <mxPoint x="500" y="690" as="sourcePoint" />
            <mxPoint x="600" y="690" as="targetPoint" />
          </mxGeometry>
        </mxCell>
        <mxCell id="Nrb_d7e8mc3MyruY62Yd-11" value="" style="endArrow=none;html=1;rounded=0;entryX=1;entryY=1;entryDx=0;entryDy=0;exitX=0.25;exitY=0;exitDx=0;exitDy=0;" edge="1" parent="1" source="Nrb_d7e8mc3MyruY62Yd-9" target="Nrb_d7e8mc3MyruY62Yd-8">
          <mxGeometry width="50" height="50" relative="1" as="geometry">
            <mxPoint x="530" y="720" as="sourcePoint" />
            <mxPoint x="580" y="670" as="targetPoint" />
          </mxGeometry>
        </mxCell>
        <mxCell id="Nrb_d7e8mc3MyruY62Yd-12" value="N" style="text;html=1;align=center;verticalAlign=middle;resizable=0;points=[];autosize=1;strokeColor=none;fillColor=none;" vertex="1" parent="1">
          <mxGeometry x="445" y="588" width="30" height="30" as="geometry" />
        </mxCell>
        <mxCell id="Nrb_d7e8mc3MyruY62Yd-13" value="1" style="text;html=1;align=center;verticalAlign=middle;resizable=0;points=[];autosize=1;strokeColor=none;fillColor=none;" vertex="1" parent="1">
          <mxGeometry x="595" y="688" width="30" height="30" as="geometry" />
        </mxCell>
      </root>
    </mxGraphModel>
  </diagram>
</mxfile>
